<?xml version="1.0" encoding="UTF-8"?>
<svg version="1.1" xmlns="http://www.w3.org/2000/svg" width="383" height="512">
<path d="M0 0 C126.39 0 252.78 0 383 0 C383 168.96 383 337.92 383 512 C256.61 512 130.22 512 0 512 C0 343.04 0 174.08 0 0 Z " fill="#000000" transform="translate(0,0)"/>
<path d="M0 0 C1.16917969 -0.00386719 2.33835938 -0.00773437 3.54296875 -0.01171875 C4.65542969 -0.01042969 5.76789063 -0.00914063 6.9140625 -0.0078125 C8.41767334 -0.00612061 8.41767334 -0.00612061 9.95166016 -0.00439453 C12.375 0.125 12.375 0.125 14.375 1.125 C17.7869721 1.35663173 21.19214646 1.52010752 24.609375 1.64257812 C30.16104386 1.91104386 30.16104386 1.91104386 32.375 4.125 C34.40466646 4.65778745 36.43275322 5.00997942 38.5 5.3671875 C40.375 6.125 40.375 6.125 41.23388672 8.12060547 C42.17462416 10.2889367 42.17462416 10.2889367 44.25439453 10.76269531 C45.36983643 10.85695801 45.36983643 10.85695801 46.5078125 10.953125 C47.31347656 11.03046875 48.11914062 11.1078125 48.94921875 11.1875 C49.79097656 11.249375 50.63273438 11.31125 51.5 11.375 C52.34949219 11.45234375 53.19898438 11.5296875 54.07421875 11.609375 C56.17303818 11.79803293 58.2739007 11.96370349 60.375 12.125 C60.375 12.785 60.375 13.445 60.375 14.125 C61.04144531 14.24875 61.70789063 14.3725 62.39453125 14.5 C73.94809288 17.08541239 82.71618255 24.28221076 90.375 33.125 C90.973125 34.115 91.57125 35.105 92.1875 36.125 C94.48648049 39.27788754 96.56090417 40.79381527 99.75 43 C106.15653208 47.50766676 110.88399017 51.8278111 112.5625 59.6875 C112.75392578 60.81478516 112.75392578 60.81478516 112.94921875 61.96484375 C113.59195993 65.22572334 115.02970178 68.098079 116.375 71.125 C118.51853835 77.17228155 118.76046571 82.79870742 118.75 89.1875 C118.74838867 90.21174072 118.74677734 91.23598145 118.74511719 92.29125977 C118.63217633 99.3018976 117.80573044 105.13671873 115.515625 111.78125 C113.76931348 116.90057419 112.69164031 122.16164932 111.5 127.43359375 C109.6902465 133.37184741 106.7659798 137.77118152 102.66796875 142.44921875 C100.60738441 145.11988546 99.12609696 148.08176127 97.5859375 151.07421875 C96.36962475 153.13410324 95.2101455 154.59571208 93.375 156.125 C92.715 156.125 92.055 156.125 91.375 156.125 C91.705 149.525 92.035 142.925 92.375 136.125 C91.715 136.125 91.055 136.125 90.375 136.125 C90.36098145 137.56166016 90.36098145 137.56166016 90.34667969 139.02734375 C90.30651663 142.61357496 90.24068875 146.19897179 90.16748047 149.78466797 C90.13942213 151.33045657 90.11813294 152.87638461 90.10400391 154.42236328 C89.94891292 170.43809205 89.94891292 170.43809205 85.375 177.125 C82.9375 179.375 82.9375 179.375 80.375 181.125 C79.488125 181.8675 78.60125 182.61 77.6875 183.375 C75.375 185.125 75.375 185.125 73.375 185.125 C73.1275 185.67414063 72.88 186.22328125 72.625 186.7890625 C70.59431039 190.58391372 67.86264853 193.86354695 65.25 197.2734375 C63.33689293 200.1829545 62.44436226 202.83430154 61.375 206.125 C60.529375 206.929375 59.68375 207.73375 58.8125 208.5625 C55.80415773 211.72511624 55.62659385 213.84790448 55.375 218.125 C54.715 218.125 54.055 218.125 53.375 218.125 C53.375 223.405 53.375 228.685 53.375 234.125 C54.695 234.785 56.015 235.445 57.375 236.125 C60.375 239.55357143 60.375 239.55357143 60.375 242.125 C61.138125 242.393125 61.90125 242.66125 62.6875 242.9375 C65.28745703 244.08631822 66.76385423 244.79778944 68.375 247.125 C68.3515625 248.9921875 68.3515625 248.9921875 67.375 251.125 C65.21552501 252.53696442 63.16116896 253.7121308 60.875 254.875 C51.88858092 259.7652413 44.59487363 264.47213017 41.12890625 274.53515625 C40.88011719 275.38980469 40.63132813 276.24445313 40.375 277.125 C39.86646484 278.671875 39.86646484 278.671875 39.34765625 280.25 C38.1125027 285.17077236 37.67081386 290.01618293 37.25 295.0625 C37.12044922 296.5175293 37.12044922 296.5175293 36.98828125 298.00195312 C36.77778881 300.37584011 36.57352115 302.75008706 36.375 305.125 C32.15409376 307.00445825 28.11140234 308.59671578 23.625 309.75 C20.83431373 310.47495481 18.11161757 311.21279414 15.375 312.125 C15.375 312.785 15.375 313.445 15.375 314.125 C9.40167877 317.6003869 5.25990225 318.69874185 -1.625 318.125 C-1.625 318.785 -1.625 319.445 -1.625 320.125 C-2.51251953 320.41503906 -2.51251953 320.41503906 -3.41796875 320.7109375 C-4.20816406 320.97132813 -4.99835938 321.23171875 -5.8125 321.5 C-6.97845703 321.88285156 -6.97845703 321.88285156 -8.16796875 322.2734375 C-10.61616875 323.07260835 -10.61616875 323.07260835 -12.82421875 324.1640625 C-17.67272033 325.82756513 -22.76714875 325.92368774 -27.8515625 326.3359375 C-29.0890625 326.44808594 -29.0890625 326.44808594 -30.3515625 326.5625 C-31.10002441 326.62308594 -31.84848633 326.68367188 -32.61962891 326.74609375 C-34.93246201 327.04789121 -34.93246201 327.04789121 -37.625 329.125 C-48.93721748 330.44522194 -48.93721748 330.44522194 -53.62109375 328.14453125 C-55.43739711 326.39290338 -56.520917 324.31003645 -57.75 322.125 C-57.58222835 319.44065359 -56.34888977 318.4202508 -54.40625 316.671875 C-53.8184375 316.16140625 -53.230625 315.6509375 -52.625 315.125 C-51.8721875 314.42890625 -51.119375 313.7328125 -50.34375 313.015625 C-45.95238217 308.97665088 -41.50123088 305.17173598 -36.69140625 301.64453125 C-27.79875847 295.10532523 -19.04870901 288.53372709 -14.625 278.125 C-13.965 278.125 -13.305 278.125 -12.625 278.125 C-12.41875 277.5475 -12.2125 276.97 -12 276.375 C-8.3590463 270.41707577 -0.13621517 267.87426945 5.9375 265.00390625 C11.3338695 262.05429974 15.33222629 258.92058233 18.25 253.375 C20.32579845 249.70703154 22.51903843 246.66279289 25.375 243.5625 C31.49126867 236.85094563 35.16488646 231.72679691 37 222.6875 C39.13590037 213.49665599 44.02469904 210.40698632 51.375 205.125 C51.705 204.465 52.035 203.805 52.375 203.125 C51.199375 204.115 51.199375 204.115 50 205.125 C47.375 207.125 47.375 207.125 45.375 207.125 C45.375 207.785 45.375 208.445 45.375 209.125 C43.75781689 210.5578718 42.07876628 211.92124749 40.375 213.25 C33.34663108 218.88170587 27.29151422 225.01441009 21.3984375 231.80078125 C20.73070312 232.56777344 20.06296875 233.33476562 19.375 234.125 C18.95766602 234.60630371 18.54033203 235.08760742 18.11035156 235.58349609 C10.85896944 243.88650774 3.26614773 250.6380912 -5.625 257.125 C-8.06610902 259.05292133 -10.49516247 260.99448147 -12.91796875 262.9453125 C-14.625 264.125 -14.625 264.125 -16.625 264.125 C-16.625 264.785 -16.625 265.445 -16.625 266.125 C-17.285 266.125 -17.945 266.125 -18.625 266.125 C-18.955 267.115 -19.285 268.105 -19.625 269.125 C-23.00005933 270.44629982 -25.98565478 271.19460496 -29.625 271.125 C-33.54543433 269.07088021 -36.49266887 266.22132732 -39.625 263.125 C-40.33785156 262.45210938 -41.05070312 261.77921875 -41.78515625 261.0859375 C-45.61839826 257.37825448 -49.15037226 253.44149484 -52.63671875 249.41015625 C-55.14998362 246.52162983 -57.68832496 243.65813935 -60.25 240.8125 C-60.70544189 240.29655273 -61.16088379 239.78060547 -61.63012695 239.24902344 C-64.39248201 236.19766042 -67.07856063 234.16653582 -70.625 232.125 C-75.47804524 227.49643483 -79.2254855 221.93174726 -83.01953125 216.4375 C-88.33555907 208.78035044 -94.95113156 203.53425131 -102.42578125 198.08203125 C-110.03086379 192.39197673 -110.03086379 192.39197673 -111.25 188.125 C-111.435625 186.64 -111.435625 186.64 -111.625 185.125 C-112.7696875 184.9703125 -112.7696875 184.9703125 -113.9375 184.8125 C-116.88001204 184.05976436 -117.79132954 183.4825763 -119.625 181.125 C-119.90085937 180.48304688 -120.17671875 179.84109375 -120.4609375 179.1796875 C-121.85308293 176.72241066 -123.12204717 175.93951528 -125.5625 174.5625 C-128.33317483 172.9829564 -130.40559726 171.40709773 -132.625 169.125 C-134.72489652 167.94925289 -134.72489652 167.94925289 -136.625 167.125 C-136.625 166.465 -136.625 165.805 -136.625 165.125 C-137.24246094 164.86976563 -137.85992187 164.61453125 -138.49609375 164.3515625 C-140.94100614 162.94293408 -141.52449434 162.02739758 -142.6875 159.5 C-143.01621094 158.7884375 -143.34492188 158.076875 -143.68359375 157.34375 C-145.11348201 153.9737229 -146.40271448 150.57488281 -147.625 147.125 C-148.016875 146.155625 -148.40875 145.18625 -148.8125 144.1875 C-150.3225763 138.49567393 -150.62040375 132.36695656 -147.625 127.125 C-146.573125 126.135 -146.573125 126.135 -145.5 125.125 C-143.43317702 123.27004532 -143.43317702 123.27004532 -143.125 120.6875 C-143.43794108 117.9539881 -143.43794108 117.9539881 -145.625 115.8125 C-147.82583823 112.85512363 -148.31889534 110.84957017 -148.16015625 107.1640625 C-147.32583362 103.98511057 -145.27333002 102.22178012 -143.015625 99.921875 C-141.38148359 97.81034397 -141.14909416 96.51030908 -140.9375 93.875 C-140.625 90.125 -140.625 90.125 -139.0859375 88.69140625 C-137.37600464 87.21298399 -137.37600464 87.21298399 -137.61328125 84.91796875 C-137.72027344 84.05816406 -137.82726562 83.19835937 -137.9375 82.3125 C-138.18642169 75.38878937 -135.14951328 70.93371808 -131.5703125 65.2890625 C-129.59134949 62.28782477 -129.59134949 62.28782477 -128.578125 59.39453125 C-127.49814961 56.8229505 -126.45556007 55.8488935 -124.25 54.1875 C-121.79622088 52.21643153 -120.48182721 50.90069596 -118.75 48.1875 C-116.17588726 44.47774929 -113.1780873 42.27650697 -109.55078125 39.640625 C-107.51480376 38.25983884 -107.51480376 38.25983884 -106.625 36.125 C-105.965 36.125 -105.305 36.125 -104.625 36.125 C-104.625 35.465 -104.625 34.805 -104.625 34.125 C-103.861875 33.898125 -103.09875 33.67125 -102.3125 33.4375 C-99.4633911 32.37829892 -99.4633911 32.37829892 -98.4375 29.8125 C-96.01630144 26.22244696 -93.29165774 25.28534944 -89.41796875 23.5078125 C-86.55584609 22.09076156 -84.0633355 20.43835725 -81.4375 18.625 C-76.38314691 15.30129216 -71.3281841 13.43031457 -65.57543945 11.72265625 C-61.73393738 10.5901071 -61.73393738 10.5901071 -58.625 8.125 C-51.08509025 5.84363548 -43.26122983 4.7092713 -35.48046875 3.59375 C-32.47575298 3.16246999 -32.47575298 3.16246999 -29.0625 2.0625 C-19.72205303 -0.48489463 -9.61193383 -0.03288005 0 0 Z " fill="#FBFBFB" transform="translate(186.625,84.875)"/>
<path d="M0 0 C1.49080078 -0.01836914 1.49080078 -0.01836914 3.01171875 -0.03710938 C3.97464844 -0.03904297 4.93757812 -0.04097656 5.9296875 -0.04296875 C6.80608887 -0.04707764 7.68249023 -0.05118652 8.58544922 -0.05541992 C11.40845084 0.2146134 13.52077294 1.09910642 16.125 2.1875 C19.38012676 2.35422263 19.38012676 2.35422263 22.75 2.1875 C28.7931128 1.96624187 28.7931128 1.96624187 32.125 4.1875 C33.07375 4.47625 34.0225 4.765 35 5.0625 C38.125 6.1875 38.125 6.1875 40.4375 8.25 C43.70603446 10.60638531 46.00046713 10.77266698 49.94140625 11.01171875 C52.12126134 11.18719903 54.02047236 11.6042685 56.125 12.1875 C56.87136719 12.37828125 57.61773437 12.5690625 58.38671875 12.765625 C64.51048202 14.46173979 69.70854996 16.8774472 75.125 20.1875 C75.125 20.8475 75.125 21.5075 75.125 22.1875 C75.70121094 22.44789062 76.27742187 22.70828125 76.87109375 22.9765625 C79.28730095 24.27469808 81.13294479 25.7494243 83.1875 27.5625 C83.85910156 28.14773437 84.53070313 28.73296875 85.22265625 29.3359375 C87.11492125 31.17769029 88.67012063 32.98478544 90.125 35.1875 C90.125 35.8475 90.125 36.5075 90.125 37.1875 C91.115 37.5175 92.105 37.8475 93.125 38.1875 C93.125 38.8475 93.125 39.5075 93.125 40.1875 C93.84171875 40.42726562 94.5584375 40.66703125 95.296875 40.9140625 C98.54846627 42.3781768 100.72951196 44.17839252 103.375 46.5625 C104.24640625 47.33335937 105.1178125 48.10421875 106.015625 48.8984375 C108.07113588 51.12904745 108.77400061 52.23100515 109.125 55.1875 C108.444375 54.48625 107.76375 53.785 107.0625 53.0625 C100.31258277 46.36930476 93.37605038 40.8019979 84.1875 37.875 C79.60121394 36.28569295 76.39026573 33.26534878 72.70703125 30.1875 C55.80249614 17.09351819 29.22094289 17.05599737 8.89404297 19.59033203 C-3.80378514 21.63671692 -15.99047883 25.21693471 -28.07421875 29.5546875 C-31.18707403 30.64857591 -34.35252403 31.55144417 -37.51953125 32.47265625 C-40.3497727 33.33158525 -43.13945242 34.29157216 -45.9375 35.25 C-50.87949002 36.91864087 -55.76225909 38.16495182 -60.875 39.1875 C-60.875 39.8475 -60.875 40.5075 -60.875 41.1875 C-61.844375 41.55875 -62.81375 41.93 -63.8125 42.3125 C-67.88616208 44.03341439 -71.35741826 46.4340988 -74.95703125 48.98046875 C-76.875 50.1875 -76.875 50.1875 -78.875 50.1875 C-78.875 50.8475 -78.875 51.5075 -78.875 52.1875 C-79.535 52.1875 -80.195 52.1875 -80.875 52.1875 C-80.875 52.8475 -80.875 53.5075 -80.875 54.1875 C-81.535 54.1875 -82.195 54.1875 -82.875 54.1875 C-83.95025194 56.83978812 -84.96956151 59.47118454 -85.875 62.1875 C-86.535 62.1875 -87.195 62.1875 -87.875 62.1875 C-88.143125 62.991875 -88.41125 63.79625 -88.6875 64.625 C-89.875 68.1875 -89.875 68.1875 -90.67578125 69.95703125 C-94.09460395 78.17192749 -94.99625448 88.9532788 -92.10742188 97.44335938 C-90.14435017 101.90488598 -87.69498123 106.05813333 -85.11962891 110.18994141 C-83.18833146 113.28956394 -81.37731316 116.45624413 -79.5625 119.625 C-78.91410156 120.75164062 -78.26570313 121.87828125 -77.59765625 123.0390625 C-71.61008687 133.98232989 -69.52771689 144.35451061 -69.625 156.75 C-69.61339844 158.2340332 -69.61339844 158.2340332 -69.6015625 159.74804688 C-69.61514466 164.86512388 -70.01852755 169.30250267 -71.4296875 174.21069336 C-72.28207127 177.99454829 -72.08168245 181.82957511 -72 185.6875 C-71.99097656 186.50992188 -71.98195313 187.33234375 -71.97265625 188.1796875 C-71.94936865 190.18242083 -71.91350959 192.18500154 -71.875 194.1875 C-67.80550698 196.03000666 -64.25640929 197.48189768 -59.8125 198.125 C-55.25275496 198.93948881 -52.49316339 200.33105522 -48.875 203.1875 C-51.88117269 206.19367269 -54.69881598 205.78335316 -58.875 206.1875 C-57.70661928 210.77610208 -57.70661928 210.77610208 -55.8359375 215.09765625 C-54.35487176 218.3186732 -54.42375227 221.54255507 -54.21875 225.04296875 C-54.1053125 225.75066406 -53.991875 226.45835937 -53.875 227.1875 C-53.215 227.5175 -52.555 227.8475 -51.875 228.1875 C-51.875 228.8475 -51.875 229.5075 -51.875 230.1875 C-48.9554957 231.1606681 -46.82055049 231.3804546 -43.76953125 231.50390625 C-42.78662109 231.54580078 -41.80371094 231.58769531 -40.79101562 231.63085938 C-39.76685547 231.67017578 -38.74269531 231.70949219 -37.6875 231.75 C-36.65173828 231.79318359 -35.61597656 231.83636719 -34.54882812 231.88085938 C-31.9910181 231.98694366 -29.43311155 232.08900146 -26.875 232.1875 C-27.205 232.8475 -27.535 233.5075 -27.875 234.1875 C-30.50235198 234.44875082 -33.05372511 234.60915499 -35.6875 234.6875 C-42.07394395 234.76448346 -42.07394395 234.76448346 -47.875 237.1875 C-47.15345688 240.46060895 -47.15345688 240.46060895 -43.9375 241.875 C-40.46449599 244.49747242 -40.17559558 245.92571996 -39.4453125 250.09765625 C-38.78124705 252.53104675 -37.74077161 253.96408116 -36.1875 255.9375 C-33.875 259.1875 -33.875 259.1875 -34.23046875 261.390625 C-34.44316406 261.98359375 -34.65585938 262.5765625 -34.875 263.1875 C-39.13081144 260.05822688 -42.7949685 256.48472607 -45.875 252.1875 C-45.875 251.5275 -45.875 250.8675 -45.875 250.1875 C-46.535 250.1875 -47.195 250.1875 -47.875 250.1875 C-49.16288243 248.71605732 -50.38070327 247.1829285 -51.5625 245.625 C-55.06749483 241.12946316 -58.76642441 237.12488494 -62.875 233.1875 C-63.761875 232.28 -64.64875 231.3725 -65.5625 230.4375 C-67.7825808 228.17175979 -67.7825808 228.17175979 -70.1875 226.5 C-70.744375 226.066875 -71.30125 225.63375 -71.875 225.1875 C-71.875 224.5275 -71.875 223.8675 -71.875 223.1875 C-72.535 223.1875 -73.195 223.1875 -73.875 223.1875 C-75.4609375 221.24609375 -75.4609375 221.24609375 -77.25 218.625 C-77.83523437 217.77808594 -78.42046875 216.93117188 -79.0234375 216.05859375 C-80.875 213.1875 -80.875 213.1875 -82.6796875 209.7265625 C-84.9655402 205.67918076 -88.05219732 203.03208383 -91.625 200.125 C-92.24536133 199.60333252 -92.86572266 199.08166504 -93.50488281 198.54418945 C-96.77647452 195.81544279 -100.10648497 193.28104337 -103.625 190.875 C-106.33272709 188.93677655 -107.43101571 187.52077092 -108.375 184.3125 C-108.6225 182.765625 -108.6225 182.765625 -108.875 181.1875 C-109.535 181.1875 -110.195 181.1875 -110.875 181.1875 C-110.875 180.5275 -110.875 179.8675 -110.875 179.1875 C-111.6175 179.14625 -112.36 179.105 -113.125 179.0625 C-116.97546487 177.83735209 -117.71407972 175.52710408 -119.875 172.1875 C-121.86268394 170.83587492 -123.8616347 169.50056433 -125.875 168.1875 C-126.54166667 166.85416667 -127.20833333 165.52083333 -127.875 164.1875 C-129.53197379 163.49709426 -131.2005761 162.8344365 -132.875 162.1875 C-137.46535714 158.9472479 -139.66190875 156.70155115 -140.875 151.1875 C-141.25031446 148.86055036 -141.59417202 146.52773315 -141.875 144.1875 C-142.535 144.1875 -143.195 144.1875 -143.875 144.1875 C-145.51570872 138.67364282 -145.54940028 132.86666021 -144.875 127.1875 C-143.72265625 125.25 -143.72265625 125.25 -142.3125 123.8125 C-139.46389413 121.34180101 -139.46389413 121.34180101 -139.875 117.5625 C-140.62456635 114.24642557 -140.62456635 114.24642557 -142.4375 112.25 C-144.69785514 109.00688175 -144.06936028 106.07470566 -143.875 102.1875 C-142.39 101.6925 -142.39 101.6925 -140.875 101.1875 C-139.19573225 98.46094698 -138.27295433 95.5422768 -137.3125 92.5 C-135.98504785 88.29754785 -135.98504785 88.29754785 -134.875 87.1875 C-134.82110913 85.22946493 -134.78225783 83.27101091 -134.75 81.3125 C-134.32752291 74.7891673 -132.41582277 70.92218128 -128.56640625 65.72265625 C-126.72449791 62.96192065 -125.9046457 60.32463328 -124.875 57.1875 C-123.21284732 55.84854368 -121.54536393 54.51619858 -119.875 53.1875 C-118.83622835 51.71408442 -117.83916499 50.21078128 -116.875 48.6875 C-114.54906544 45.06872364 -112.4520465 42.65736544 -108.875 40.1875 C-107.49759124 39.14902056 -106.12276803 38.10710633 -104.75 37.0625 C-102.48991559 35.36523817 -100.22910409 33.75690272 -97.875 32.1875 C-97.66875 31.40375 -97.4625 30.62 -97.25 29.8125 C-95.32938637 26.14587398 -92.86067882 25.63722072 -89.1171875 24.16015625 C-86.30340657 22.93954397 -84.24707314 21.11080255 -81.875 19.1875 C-79.88382592 18.49491771 -77.8828864 17.83002365 -75.875 17.1875 C-74.18720643 16.16845482 -72.4994442 15.14935687 -70.8125 14.12890625 C-67.92078072 12.72385716 -64.95376774 12.2615281 -61.79296875 11.77734375 C-59.486135 11.28912659 -59.486135 11.28912659 -57.875 8.1875 C-54.94140625 7.4921875 -54.94140625 7.4921875 -51.4375 7.0625 C-46.58380897 6.44730601 -46.58380897 6.44730601 -41.875 5.1875 C-39.95332291 4.96697968 -38.03130142 4.74707319 -36.10546875 4.56640625 C-33.73981014 4.2305023 -33.73981014 4.2305023 -31.0625 3.1875 C-27.52470201 2.07760259 -24.38530995 1.81127767 -20.6875 1.625 C-13.63171441 1.25680672 -7.14059219 0.00459498 0 0 Z " fill="#020202" transform="translate(186.875,86.8125)"/>
<path d="M0 0 C1.98 0.495 1.98 0.495 4 1 C4.14680981 4.81208602 4.23457102 8.6234332 4.3125 12.4375 C4.3753418 14.04141602 4.3753418 14.04141602 4.43945312 15.67773438 C4.61323292 27.04293316 0.03246211 33.55361187 -7.56640625 41.6640625 C-11.3843347 45.32878354 -15.55652228 48.14912305 -20 51 C-22.44333531 52.59537491 -24.87925965 54.20177649 -27.3125 55.8125 C-27.94800781 56.23297607 -28.58351563 56.65345215 -29.23828125 57.08666992 C-37.68806692 62.72805643 -45.9235784 68.67732929 -53 76 C-52.113125 75.896875 -51.22625 75.79375 -50.3125 75.6875 C-47 76 -47 76 -44.375 78.125 C-38.81511133 84.85539155 -36.14090376 90.65574734 -34.578125 99.125 C-34.16915936 101.15877507 -33.69351724 103.1796695 -33.171875 105.1875 C-32.88828125 106.280625 -32.6046875 107.37375 -32.3125 108.5 C-32.04050781 109.5003125 -31.76851563 110.500625 -31.48828125 111.53125 C-30.16787387 120.91142401 -32.59584797 127.22652099 -37.625 135.0625 C-38.13417969 135.89587891 -38.64335937 136.72925781 -39.16796875 137.58789062 C-41.78962952 141.80948723 -44.56512304 145.79056832 -47.6640625 149.67578125 C-50.5850488 153.35509277 -52.72330478 156.8882419 -54.75 161.125 C-55.30171875 162.26195312 -55.8534375 163.39890625 -56.421875 164.5703125 C-58.32744021 168.71161511 -60.15038307 172.87595767 -61.84375 177.109375 C-64.29166667 183.22916667 -64.29166667 183.22916667 -67 185 C-68.66612397 185.04252869 -70.33397179 185.04612782 -72 185 C-72.80332173 177.3089383 -71.71547123 172.64735661 -67.7109375 166.0859375 C-65.70904753 162.47522271 -64.36441783 158.82265261 -63 154.9375 C-60.98286426 149.27522526 -58.63993808 144.31617302 -55.3828125 139.234375 C-50.34853549 131.09989351 -46.45648378 121.45949585 -48.45263672 111.8125 C-49.08469154 109.45121963 -49.80566891 107.13664205 -50.5625 104.8125 C-50.79001953 104.01908203 -51.01753906 103.22566406 -51.25195312 102.40820312 C-52.57784209 98.306557 -53.68559485 95.74973799 -57.46875 93.49609375 C-61.19121449 91.91898767 -64.00595235 91.32604471 -68 91 C-68.33 92.98 -68.66 94.96 -69 97 C-70.13888672 97.05607422 -70.13888672 97.05607422 -71.30078125 97.11328125 C-72.29464844 97.17902344 -73.28851563 97.24476563 -74.3125 97.3125 C-75.29863281 97.37050781 -76.28476562 97.42851562 -77.30078125 97.48828125 C-80.35285428 98.06689423 -81.15982922 98.56108709 -83 101 C-83.92353341 102.44936023 -84.7970707 103.93148137 -85.625 105.4375 C-86.05039062 106.19933594 -86.47578125 106.96117187 -86.9140625 107.74609375 C-87.92367559 109.84158566 -88.53446789 111.7292378 -89 114 C-88.01 114 -87.02 114 -86 114 C-85.938125 112.989375 -85.87625 111.97875 -85.8125 110.9375 C-85.14849786 106.47140341 -83.35136249 103.05136841 -80 100 C-76.4375 98.875 -76.4375 98.875 -73 99 C-70.80078125 100.18359375 -70.80078125 100.18359375 -69 102 C-68.609375 104.48046875 -68.609375 104.48046875 -68.75 107.1875 C-68.78609375 108.08855469 -68.8221875 108.98960937 -68.859375 109.91796875 C-68.90578125 110.60503906 -68.9521875 111.29210937 -69 112 C-69.66 112 -70.32 112 -71 112 C-71.09667969 112.51433594 -71.19335938 113.02867187 -71.29296875 113.55859375 C-72.26291692 116.90786231 -73.77032167 119.94904563 -75.3125 123.0625 C-75.60833984 123.68705078 -75.90417969 124.31160156 -76.20898438 124.95507812 C-77.96422214 128.50725478 -79.46713066 131.0839882 -83 133 C-87.41025641 132.58974359 -87.41025641 132.58974359 -89 131 C-91.83754922 130.6963158 -93.45988771 130.66490993 -95.9140625 132.1875 C-102.13482877 138.7775355 -102.82627531 146.38693208 -104 155 C-105.6651644 166.6241284 -109.71328016 175.91553505 -118.94921875 183.4765625 C-121.79336535 185.58935712 -123.9267082 186.97964117 -127.375 187.9375 C-130.91078227 188.76806695 -130.91078227 188.76806695 -133.20703125 190.5234375 C-136.93432143 192.49394895 -140.15635636 192.55750444 -144.3125 192.6875 C-145.05306641 192.72166016 -145.79363281 192.75582031 -146.55664062 192.79101562 C-148.37058164 192.87293554 -150.18526353 192.93815822 -152 193 C-155.02811079 188.63952046 -155.02811079 188.63952046 -154.90625 185.8671875 C-153.77889227 183.54444184 -152.60935088 182.60656788 -150.5 181.125 C-149.78328125 180.61710938 -149.0665625 180.10921875 -148.328125 179.5859375 C-147.55984375 179.06257812 -146.7915625 178.53921875 -146 178 C-145.21109375 177.45601562 -144.4221875 176.91203125 -143.609375 176.3515625 C-137.5437567 172.23417259 -137.5437567 172.23417259 -134.859375 171.078125 C-132.51146939 169.71673435 -132.15479308 168.41742677 -131 166 C-129.08984375 164.1484375 -129.08984375 164.1484375 -126.9375 162.375 C-124.02124288 160.04514448 -124.02124288 160.04514448 -122 157 C-121.34 157 -120.68 157 -120 157 C-117.41495378 147.24966327 -116.21848406 137.63969899 -115.4375 127.625 C-115.26905395 125.50136789 -115.0976259 123.37815794 -114.91773987 121.25546265 C-114.75621504 119.3461987 -114.60517318 117.43605618 -114.45483398 115.52587891 C-113.18739232 105.70065478 -109.00190797 98.90556346 -101.25 92.8125 C-98.14028243 90.60677009 -94.89907406 88.90581644 -91.5 87.1875 C-85.65789243 84.08513943 -82.03720783 80.16464164 -78 75 C-76.62532733 73.2705731 -75.2503262 71.54140723 -73.875 69.8125 C-73.22015625 68.98621094 -72.5653125 68.15992188 -71.890625 67.30859375 C-69.42490374 64.29776469 -66.88639295 61.61149838 -64 59 C-63.34 59 -62.68 59 -62 59 C-62 58.34 -62 57.68 -62 57 C-59.92710438 55.36179148 -57.86719935 53.85747352 -55.6875 52.375 C-55.09259766 51.95476562 -54.49769531 51.53453125 -53.88476562 51.1015625 C-49.37843699 48 -49.37843699 48 -46 48 C-46 47.34 -46 46.68 -46 46 C-45.09378906 45.5153125 -44.18757813 45.030625 -43.25390625 44.53125 C-30.79341964 37.74272887 -22.77784565 30.31520596 -14.77905273 18.52197266 C-11.74512406 14.11113255 -8.75306117 10.60012774 -4.49633789 7.33007812 C-2.19509079 5.28452515 -1.13830128 2.81227375 0 0 Z " fill="#F6F6F6" transform="translate(344,253)"/>
<path d="M0 0 C1.10516968 -0.00821777 1.10516968 -0.00821777 2.23266602 -0.01660156 C8.49040615 0.06522663 14.31371851 0.77164568 19.625 4.3125 C23.02229829 10.90119972 22.61734143 18.65829852 20.71484375 25.6640625 C15.81899171 38.85610111 8.6506367 53.2213724 -3.375 61.3125 C-4.035 61.3125 -4.695 61.3125 -5.375 61.3125 C-5.375 61.9725 -5.375 62.6325 -5.375 63.3125 C-37.88607796 81.87847092 -37.88607796 81.87847092 -58.4375 81.625 C-59.74783203 81.62822266 -61.05816406 81.63144531 -62.40820312 81.63476562 C-69.30987066 81.59651961 -75.79269022 81.50660326 -82.375 79.3125 C-85.93004555 73.76511341 -84.9896563 66.04064894 -83.95703125 59.77734375 C-83.61561797 58.32184501 -83.25416265 56.87087565 -82.87109375 55.42578125 C-82.3444773 53.18247812 -82.16041571 51.04668353 -82 48.75 C-81.25015828 41.34208091 -77.85329041 36.24296137 -72.375 31.3125 C-71.653125 30.549375 -70.93125 29.78625 -70.1875 29 C-68.375 27.3125 -68.375 27.3125 -66.375 27.3125 C-66.375 26.6525 -66.375 25.9925 -66.375 25.3125 C-64.0789575 23.42902764 -61.78000785 21.67166126 -59.375 19.9375 C-58.72660156 19.45539063 -58.07820313 18.97328125 -57.41015625 18.4765625 C-51.74299005 14.34682554 -45.80518853 10.86638508 -39.0625 8.8125 C-35.71532521 7.76150996 -32.45915014 6.57894521 -29.1875 5.3125 C-19.56939194 1.84891538 -10.20841807 0.05474247 0 0 Z " fill="#010101" transform="translate(226.375,181.6875)"/>
<path d="M0 0 C1.16917969 -0.00386719 2.33835938 -0.00773437 3.54296875 -0.01171875 C4.65542969 -0.01042969 5.76789063 -0.00914063 6.9140625 -0.0078125 C8.41767334 -0.00612061 8.41767334 -0.00612061 9.95166016 -0.00439453 C12.375 0.125 12.375 0.125 14.375 1.125 C17.7869721 1.35663173 21.19214646 1.52010752 24.609375 1.64257812 C30.16104386 1.91104386 30.16104386 1.91104386 32.375 4.125 C34.40466646 4.65778745 36.43275322 5.00997942 38.5 5.3671875 C40.375 6.125 40.375 6.125 41.23388672 8.12060547 C42.17462416 10.2889367 42.17462416 10.2889367 44.25439453 10.76269531 C45.36983643 10.85695801 45.36983643 10.85695801 46.5078125 10.953125 C47.31347656 11.03046875 48.11914062 11.1078125 48.94921875 11.1875 C49.79097656 11.249375 50.63273438 11.31125 51.5 11.375 C52.34949219 11.45234375 53.19898438 11.5296875 54.07421875 11.609375 C56.17303818 11.79803293 58.2739007 11.96370349 60.375 12.125 C60.375 12.785 60.375 13.445 60.375 14.125 C61.04144531 14.24875 61.70789063 14.3725 62.39453125 14.5 C73.94809288 17.08541239 82.71618255 24.28221076 90.375 33.125 C90.973125 34.115 91.57125 35.105 92.1875 36.125 C94.48648049 39.27788754 96.56090417 40.79381527 99.75 43 C104.58798762 46.37428588 108.59814799 49.84077951 111.375 55.125 C111.375 56.115 111.375 57.105 111.375 58.125 C110.715 58.125 110.055 58.125 109.375 58.125 C109.065625 57.3 108.75625 56.475 108.4375 55.625 C105.89005038 50.48111134 100.56999709 45.5621319 95.3515625 43.21484375 C92.53840692 41.66371647 91.1183961 39.48740832 89.1875 36.9375 C85.53904788 32.31935961 81.84019683 28.82972735 77.02734375 25.46484375 C76.48207031 25.02269531 75.93679688 24.58054687 75.375 24.125 C75.375 23.465 75.375 22.805 75.375 22.125 C74.67375 21.84914063 73.9725 21.57328125 73.25 21.2890625 C71.30073089 20.49982039 69.36322515 19.68100306 67.4375 18.8359375 C66.426875 18.39507812 65.41625 17.95421875 64.375 17.5 C62.8590625 16.83097656 62.8590625 16.83097656 61.3125 16.1484375 C58.42288305 15.14168266 56.39574006 15.00632807 53.375 15.125 C53.045 14.795 52.715 14.465 52.375 14.125 C50.9806801 14.01932523 49.58428326 13.94051077 48.1875 13.875 C43.2404529 13.39827034 41.08363169 11.43051955 37.375 8.125 C33.82911499 6.82579254 33.82911499 6.82579254 30.375 6.125 C29.43333984 5.85236328 29.43333984 5.85236328 28.47265625 5.57421875 C25.27664437 4.88978418 22.16086989 5.15954908 18.91015625 5.28515625 C16.375 5.125 16.375 5.125 14.04125977 4.12939453 C11.21202896 3.06360792 9.18741808 2.88042992 6.1796875 2.89453125 C5.21675781 2.89646484 4.25382813 2.89839844 3.26171875 2.90039062 C2.26785156 2.91263672 1.27398437 2.92488281 0.25 2.9375 C-1.25240234 2.9384668 -1.25240234 2.9384668 -2.78515625 2.93945312 C-8.29402254 2.92472585 -8.29402254 2.92472585 -13.625 4.125 C-15.8315595 4.27815452 -18.04044309 4.39890916 -20.25 4.5 C-25.49508963 4.82950615 -29.79085184 5.61792149 -34.66796875 7.5 C-37.63312268 8.44695535 -40.53787524 8.18436778 -43.625 8.125 C-44.40875 8.455 -45.1925 8.785 -46 9.125 C-49.84454534 10.5895887 -53.55647255 10.2845501 -57.625 10.125 C-57.99238281 11.08599609 -57.99238281 11.08599609 -58.3671875 12.06640625 C-59.625 14.125 -59.625 14.125 -61.5078125 14.77734375 C-62.24773437 14.87144531 -62.98765625 14.96554688 -63.75 15.0625 C-68.18409712 15.85252373 -71.09032612 17.452965 -74.78125 19.96484375 C-77.2417228 21.51306499 -79.87691826 22.20897275 -82.625 23.125 C-83.40875 23.785 -84.1925 24.445 -85 25.125 C-87.63652013 27.13377724 -88.68430372 27.44763381 -91.8125 28 C-93.070625 28.37125 -94.32875 28.7425 -95.625 29.125 C-96.34545764 31.1062585 -97.00501259 33.11004093 -97.625 35.125 C-100.6539925 37.9914612 -104.21193934 40.19189732 -107.68359375 42.484375 C-112.67101763 45.94543328 -115.73822269 49.72623293 -118.984375 54.85546875 C-120.65799136 57.17063805 -122.3434801 58.44996007 -124.625 60.125 C-125.30624706 62.12008067 -125.96927209 64.12138693 -126.625 66.125 C-127.63141347 67.65541388 -128.65397457 69.17526327 -129.6875 70.6875 C-132.95496577 75.88538138 -133.33614578 80.37930214 -133.421875 86.4375 C-133.625 89.125 -133.625 89.125 -135.625 91.125 C-135.893125 92.383125 -136.16125 93.64125 -136.4375 94.9375 C-137.19508256 98.36817877 -137.5552088 99.05853219 -140.25 101.625 C-143.000304 104.03667433 -143.000304 104.03667433 -143.1875 108.0625 C-142.94221038 112.27198639 -141.04849579 114.71695905 -138.625 118.125 C-138.0625 120.625 -138.0625 120.625 -138.625 123.125 C-139.45515625 123.98351562 -140.2853125 124.84203125 -141.140625 125.7265625 C-144.45639325 129.58460995 -144.20689087 133.10951964 -143.9375 138 C-143.91494141 138.78375 -143.89238281 139.5675 -143.86914062 140.375 C-143.81068018 142.2925026 -143.72101283 144.2090106 -143.625 146.125 C-142.965 146.125 -142.305 146.125 -141.625 146.125 C-141.356875 147.135625 -141.08875 148.14625 -140.8125 149.1875 C-140.42052185 150.5011565 -140.0245583 151.81362917 -139.625 153.125 C-139.274375 154.300625 -138.92375 155.47625 -138.5625 156.6875 C-136.22235603 160.83936833 -133.764368 162.29370586 -129.765625 164.71875 C-127.1111592 166.46255965 -125.54076777 168.61468362 -123.625 171.125 C-122.614375 171.785 -121.60375 172.445 -120.5625 173.125 C-117.45868753 175.23823402 -116.50138992 176.96925331 -114.625 180.125 C-112.53966367 181.00322312 -112.53966367 181.00322312 -110.625 181.125 C-110.625 181.785 -110.625 182.445 -110.625 183.125 C-109.965 183.125 -109.305 183.125 -108.625 183.125 C-107.1643715 185.77238916 -106.625 187.01948334 -106.625 190.125 C-106.09519531 190.34671875 -105.56539062 190.5684375 -105.01953125 190.796875 C-101.77918754 192.59412926 -99.09857622 194.95876757 -96.3125 197.375 C-95.14742665 198.38184751 -93.98206489 199.3883614 -92.81640625 200.39453125 C-92.26227051 200.8735791 -91.70813477 201.35262695 -91.13720703 201.84619141 C-89.94374657 202.85544971 -88.71062826 203.81780607 -87.46484375 204.76171875 C-80.75298866 209.85294368 -77.26578892 217.70134259 -73.625 225.125 C-72.965 225.125 -72.305 225.125 -71.625 225.125 C-69.91269752 226.74474559 -68.25336738 228.4208946 -66.625 230.125 C-64.12516645 232.63729119 -61.61335153 235.13648694 -59.08984375 237.625 C-58.25582031 238.45 -57.42179687 239.275 -56.5625 240.125 C-55.72589844 240.95 -54.88929688 241.775 -54.02734375 242.625 C-47.625 249.28760163 -47.625 249.28760163 -47.625 252.125 C-46.965 252.125 -46.305 252.125 -45.625 252.125 C-44.25484736 253.70169369 -42.95208298 255.33743838 -41.6875 257 C-39.39593538 260.00687545 -37.78918962 262.01554025 -34.625 264.125 C-33.965 263.465 -33.305 262.805 -32.625 262.125 C-32.295 263.775 -31.965 265.425 -31.625 267.125 C-36.55108186 267.125 -39.19094599 263.40736765 -42.625 260.125 C-45.18628221 257.55462602 -47.6650811 254.91721544 -50.125 252.25 C-50.77645996 251.55108643 -51.42791992 250.85217285 -52.09912109 250.13208008 C-56.14018673 245.78276337 -60.102969 241.37784924 -63.9140625 236.82421875 C-65.94597753 234.80622095 -68.17140316 233.58949061 -70.625 232.125 C-75.47804524 227.49643483 -79.2254855 221.93174726 -83.01953125 216.4375 C-88.33555907 208.78035044 -94.95113156 203.53425131 -102.42578125 198.08203125 C-110.03086379 192.39197673 -110.03086379 192.39197673 -111.25 188.125 C-111.435625 186.64 -111.435625 186.64 -111.625 185.125 C-112.7696875 184.9703125 -112.7696875 184.9703125 -113.9375 184.8125 C-116.88001204 184.05976436 -117.79132954 183.4825763 -119.625 181.125 C-119.90085937 180.48304688 -120.17671875 179.84109375 -120.4609375 179.1796875 C-121.85308293 176.72241066 -123.12204717 175.93951528 -125.5625 174.5625 C-128.33317483 172.9829564 -130.40559726 171.40709773 -132.625 169.125 C-134.72489652 167.94925289 -134.72489652 167.94925289 -136.625 167.125 C-136.625 166.465 -136.625 165.805 -136.625 165.125 C-137.24246094 164.86976563 -137.85992187 164.61453125 -138.49609375 164.3515625 C-140.94100614 162.94293408 -141.52449434 162.02739758 -142.6875 159.5 C-143.01621094 158.7884375 -143.34492188 158.076875 -143.68359375 157.34375 C-145.11348201 153.9737229 -146.40271448 150.57488281 -147.625 147.125 C-148.016875 146.155625 -148.40875 145.18625 -148.8125 144.1875 C-150.3225763 138.49567393 -150.62040375 132.36695656 -147.625 127.125 C-146.573125 126.135 -146.573125 126.135 -145.5 125.125 C-143.43317702 123.27004532 -143.43317702 123.27004532 -143.125 120.6875 C-143.43794108 117.9539881 -143.43794108 117.9539881 -145.625 115.8125 C-147.82583823 112.85512363 -148.31889534 110.84957017 -148.16015625 107.1640625 C-147.32583362 103.98511057 -145.27333002 102.22178012 -143.015625 99.921875 C-141.38148359 97.81034397 -141.14909416 96.51030908 -140.9375 93.875 C-140.625 90.125 -140.625 90.125 -139.0859375 88.69140625 C-137.37600464 87.21298399 -137.37600464 87.21298399 -137.61328125 84.91796875 C-137.72027344 84.05816406 -137.82726562 83.19835937 -137.9375 82.3125 C-138.18642169 75.38878937 -135.14951328 70.93371808 -131.5703125 65.2890625 C-129.59134949 62.28782477 -129.59134949 62.28782477 -128.578125 59.39453125 C-127.49814961 56.8229505 -126.45556007 55.8488935 -124.25 54.1875 C-121.79622088 52.21643153 -120.48182721 50.90069596 -118.75 48.1875 C-116.17588726 44.47774929 -113.1780873 42.27650697 -109.55078125 39.640625 C-107.51480376 38.25983884 -107.51480376 38.25983884 -106.625 36.125 C-105.965 36.125 -105.305 36.125 -104.625 36.125 C-104.625 35.465 -104.625 34.805 -104.625 34.125 C-103.861875 33.898125 -103.09875 33.67125 -102.3125 33.4375 C-99.4633911 32.37829892 -99.4633911 32.37829892 -98.4375 29.8125 C-96.01630144 26.22244696 -93.29165774 25.28534944 -89.41796875 23.5078125 C-86.55584609 22.09076156 -84.0633355 20.43835725 -81.4375 18.625 C-76.38314691 15.30129216 -71.3281841 13.43031457 -65.57543945 11.72265625 C-61.73393738 10.5901071 -61.73393738 10.5901071 -58.625 8.125 C-51.08509025 5.84363548 -43.26122983 4.7092713 -35.48046875 3.59375 C-32.47575298 3.16246999 -32.47575298 3.16246999 -29.0625 2.0625 C-19.72205303 -0.48489463 -9.61193383 -0.03288005 0 0 Z " fill="#D4D4D4" transform="translate(186.625,84.875)"/>
<path d="M0 0 C3.84803193 0.67906446 5.42521049 1.80485646 8 4.66796875 C10.15167424 8.10073851 10.07276413 11.60411234 10.1875 15.5625 C10.31840879 17.25122333 10.46441333 18.93884 10.625 20.625 C10.70492187 21.46675781 10.78484375 22.30851562 10.8671875 23.17578125 C11.16449623 25.82017808 11.16449623 25.82017808 12.25 29.3125 C14.01849571 35.87737043 14.60767801 44.06483185 12.03125 50.41015625 C9.56692487 54.62352569 7.0000553 58.76013636 4.375 62.875 C3.86646484 63.67873047 3.35792969 64.48246094 2.83398438 65.31054688 C0.27554859 69.34113709 -2.32557317 73.33316384 -5.00390625 77.28515625 C-7.25609562 80.64742949 -9.19277509 84.02856262 -10.9375 87.6875 C-12.54846619 91.01064491 -14.16860427 94.26697826 -16.0625 97.4375 C-17.7424983 100.43749697 -18.84896227 103.27041275 -19.8125 106.5625 C-22.75813014 106.2440535 -24.42326606 105.89983608 -26.6875 103.9375 C-28.32819647 100.47380746 -28.04590029 98.06762226 -26.8125 94.5625 C-23.40626301 87.77873027 -19.187162 81.56599613 -14.77734375 75.40625 C-12.26660877 71.77242283 -9.90727346 68.05493065 -7.5625 64.3125 C-7.13799561 63.63864258 -6.71349121 62.96478516 -6.27612305 62.27050781 C-5.09896841 60.38051416 -3.95130822 58.47578109 -2.8125 56.5625 C-2.24015625 55.61890625 -1.6678125 54.6753125 -1.078125 53.703125 C2.29905499 45.32271539 1.00834948 37.66417936 -1.125 29.125 C-1.35123047 28.14595703 -1.57746094 27.16691406 -1.81054688 26.15820312 C-3.12658439 20.5833615 -3.12658439 20.5833615 -5.8125 15.5625 C-6.11328125 12.75 -6.11328125 12.75 -6.125 9.5625 C-6.14175781 8.510625 -6.15851563 7.45875 -6.17578125 6.375 C-5.8125 3.5625 -5.8125 3.5625 -4.46875 1.72265625 C-2.8125 0.5625 -2.8125 0.5625 0 0 Z " fill="#F1F1F1" transform="translate(313.8125,327.4375)"/>
<path d="M0 0 C4.91745771 3.88822238 6.58476266 7.82080626 7.38574219 13.95336914 C8.6652717 38.42534036 8.6652717 38.42534036 2.25 45.875 C0.5433101 47.6266028 -1.20401682 49.34007615 -3 51 C-5.79356248 54.30845938 -5.79356248 54.30845938 -8 58 C-8.66 58 -9.32 58 -10 58 C-10.268125 58.7425 -10.53625 59.485 -10.8125 60.25 C-12 63 -12 63 -13.515625 64.734375 C-16.06979912 68.6328513 -15.85776862 73.13486873 -16.27734375 77.6875 C-17.08899857 81.40795021 -17.97416999 82.74756311 -21 85 C-23.87670405 84.92983649 -25.45803325 84.34324561 -27.875 82.8125 C-29 81 -29 81 -28.76171875 78.2421875 C-26.95603839 70.55647112 -21.72894507 63.86844528 -17.0625 57.625 C-13.97337657 53.4619235 -11.18293961 49.21691472 -8.5625 44.75 C-7.90378906 43.63109375 -7.24507813 42.5121875 -6.56640625 41.359375 C-1.69834936 30.91915325 -4.41254218 18.9268082 -6 8 C-6.18915934 6.6784365 -6.37797638 5.35682395 -6.56640625 4.03515625 C-6.70949219 3.03355469 -6.85257812 2.03195312 -7 1 C-4.35955695 -0.32022153 -2.93650531 -0.40974493 0 0 Z " fill="#EEEEEE" transform="translate(333,342)"/>
<path d="M0 0 C-1.55342422 2.86157093 -3.03087563 5.03006311 -5.375 7.3125 C-7.60650987 9.59714105 -8.66075387 11.09621732 -10.125 13.8125 C-12.92398571 18.55821615 -16.94742135 21.13774237 -21.4765625 24.140625 C-23.91054699 25.93408726 -25.44421915 27.42274688 -27 30 C-26.91696878 33.32124862 -26.25657298 34.69211242 -24.125 37.25 C-20.30077502 40.39936175 -16.79940723 40.32538354 -12 40 C-11.01 39.505 -10.02 39.01 -9 38.5 C-5.44404741 36.72202371 -2.923643 36.76458142 1 37 C0.67 37.99 0.34 38.98 0 40 C-1.9609375 40.66015625 -1.9609375 40.66015625 -4.375 41.0625 C-7.70351803 41.63170911 -9.08927425 42.05951616 -12 44 C-14.0078125 44.37890625 -14.0078125 44.37890625 -16.125 44.5625 C-19.77463966 44.56686899 -19.77463966 44.56686899 -21 46 C-22.99958364 46.04080783 -25.00045254 46.04254356 -27 46 C-27 46.66 -27 47.32 -27 48 C-29.61973614 49.30986807 -31.82769932 49.25939959 -34.75 49.4375 C-39.17061577 49.76495302 -42.82486211 50.47251053 -47 52 C-50.2907152 52.39175181 -51.50900628 52.31848241 -54.3125 50.5 C-54.869375 50.005 -55.42625 49.51 -56 49 C-55.67 48.01 -55.34 47.02 -55 46 C-54.34 46 -53.68 46 -53 46 C-53 45.34 -53 44.68 -53 44 C-51.5839401 43.20724852 -50.16712447 42.41584688 -48.75 41.625 C-47.96109375 41.18414062 -47.1721875 40.74328125 -46.359375 40.2890625 C-44.26085803 39.14252177 -42.1463923 38.05350448 -40 37 C-40 36.34 -40 35.68 -40 35 C-38.32568359 33.77783203 -38.32568359 33.77783203 -36.0234375 32.3828125 C-30.92197725 29.0917412 -26.83914315 25.21806531 -22.625 20.875 C-21.92761719 20.17246094 -21.23023438 19.46992188 -20.51171875 18.74609375 C-14.86592078 13.62759268 -14.86592078 13.62759268 -11.6875 7.0625 C-9.96474957 1.89424872 -5.2343316 -0.76975465 0 0 Z " fill="#0C0C0C" transform="translate(194,357)"/>
<path d="M0 0 C1.16917969 -0.00386719 2.33835937 -0.00773437 3.54296875 -0.01171875 C4.65542969 -0.01042969 5.76789063 -0.00914063 6.9140625 -0.0078125 C8.41767334 -0.00612061 8.41767334 -0.00612061 9.95166016 -0.00439453 C12.375 0.125 12.375 0.125 14.375 1.125 C17.7869721 1.35663173 21.19214646 1.52010752 24.609375 1.64257812 C30.16104386 1.91104386 30.16104386 1.91104386 32.375 4.125 C34.40466646 4.65778745 36.43275322 5.00997942 38.5 5.3671875 C40.375 6.125 40.375 6.125 41.23388672 8.12060547 C42.17462416 10.2889367 42.17462416 10.2889367 44.25439453 10.76269531 C45.36983643 10.85695801 45.36983643 10.85695801 46.5078125 10.953125 C47.31347656 11.03046875 48.11914062 11.1078125 48.94921875 11.1875 C49.79097656 11.249375 50.63273437 11.31125 51.5 11.375 C52.77423828 11.49101563 52.77423828 11.49101563 54.07421875 11.609375 C56.17303818 11.79803293 58.2739007 11.96370349 60.375 12.125 C60.375 12.785 60.375 13.445 60.375 14.125 C61.04144531 14.24875 61.70789063 14.3725 62.39453125 14.5 C73.94809288 17.08541239 82.71618255 24.28221076 90.375 33.125 C90.973125 34.115 91.57125 35.105 92.1875 36.125 C94.48648049 39.27788754 96.56090417 40.79381527 99.75 43 C104.58798762 46.37428588 108.59814799 49.84077951 111.375 55.125 C111.375 56.115 111.375 57.105 111.375 58.125 C110.715 58.125 110.055 58.125 109.375 58.125 C109.065625 57.3 108.75625 56.475 108.4375 55.625 C105.89005038 50.48111134 100.56999709 45.5621319 95.3515625 43.21484375 C92.53840692 41.66371647 91.1183961 39.48740832 89.1875 36.9375 C85.53904788 32.31935961 81.84019683 28.82972735 77.02734375 25.46484375 C76.48207031 25.02269531 75.93679688 24.58054687 75.375 24.125 C75.375 23.465 75.375 22.805 75.375 22.125 C74.67375 21.84914063 73.9725 21.57328125 73.25 21.2890625 C71.30073089 20.49982039 69.36322515 19.68100306 67.4375 18.8359375 C66.426875 18.39507812 65.41625 17.95421875 64.375 17.5 C63.364375 17.05398437 62.35375 16.60796875 61.3125 16.1484375 C58.42288305 15.14168266 56.39574006 15.00632807 53.375 15.125 C52.88 14.63 52.88 14.63 52.375 14.125 C50.9806801 14.01932523 49.58428326 13.94051077 48.1875 13.875 C43.2404529 13.39827034 41.08363169 11.43051955 37.375 8.125 C33.82911499 6.82579254 33.82911499 6.82579254 30.375 6.125 C29.43333984 5.85236328 29.43333984 5.85236328 28.47265625 5.57421875 C25.27664437 4.88978418 22.16086989 5.15954908 18.91015625 5.28515625 C16.375 5.125 16.375 5.125 14.04125977 4.12939453 C11.21202896 3.06360792 9.18741808 2.88042992 6.1796875 2.89453125 C5.21675781 2.89646484 4.25382812 2.89839844 3.26171875 2.90039062 C2.26785156 2.91263672 1.27398437 2.92488281 0.25 2.9375 C-1.25240234 2.9384668 -1.25240234 2.9384668 -2.78515625 2.93945312 C-8.29402254 2.92472585 -8.29402254 2.92472585 -13.625 4.125 C-15.8315595 4.27815452 -18.04044309 4.39890916 -20.25 4.5 C-25.49508963 4.82950615 -29.79085184 5.61792149 -34.66796875 7.5 C-37.63312268 8.44695535 -40.53787524 8.18436778 -43.625 8.125 C-44.40875 8.455 -45.1925 8.785 -46 9.125 C-49.84454534 10.5895887 -53.55647255 10.2845501 -57.625 10.125 C-58.285 11.445 -58.945 12.765 -59.625 14.125 C-61.625 13.125 -61.625 13.125 -62.625 11.125 C-55.57970703 5.05962787 -44.36622224 4.86769315 -35.48046875 3.59375 C-32.47575298 3.16246999 -32.47575298 3.16246999 -29.0625 2.0625 C-19.72205303 -0.48489463 -9.61193383 -0.03288005 0 0 Z " fill="#C3C3C3" transform="translate(186.625,84.875)"/>
<path d="M0 0 C-1.48833555 2.97667109 -3.89819826 3.15801415 -6.8828125 4.21484375 C-9.70396051 5.26106285 -12.32195067 6.63248545 -15 8 C-16.175625 8.474375 -17.35125 8.94875 -18.5625 9.4375 C-22.00404989 10.81370502 -22.00404989 10.81370502 -24.4375 13.0625 C-27.02700618 15.02041931 -28.11286668 15.32753831 -31.1875 15.875 C-32.445625 16.24625 -33.70375 16.6175 -35 17 C-35.72045764 18.9812585 -36.38001259 20.98504093 -37 23 C-40.0289925 25.8664612 -43.58693934 28.06689732 -47.05859375 30.359375 C-52.04601763 33.82043328 -55.11322269 37.60123293 -58.359375 42.73046875 C-60.03251581 45.04498021 -61.72795726 46.31522255 -64 48 C-64.8042208 50.59855733 -64.8042208 50.59855733 -65 53 C-65.33 53 -65.66 53 -66 53 C-67.30882858 47.93919615 -67.30882858 47.93919615 -67 45 C-65.45760916 43.10990255 -63.79303694 41.86081376 -61.82421875 40.42578125 C-59.74999569 38.96759856 -59.74999569 38.96759856 -58.125 36.0625 C-55.55088726 32.35274929 -52.5530873 30.15150697 -48.92578125 27.515625 C-46.88980376 26.13483884 -46.88980376 26.13483884 -46 24 C-45.34 24 -44.68 24 -44 24 C-44 23.34 -44 22.68 -44 22 C-43.236875 21.773125 -42.47375 21.54625 -41.6875 21.3125 C-38.8383911 20.25329892 -38.8383911 20.25329892 -37.8125 17.6875 C-35.3957006 14.10396986 -32.68080155 13.16813434 -28.81640625 11.390625 C-25.84543766 9.92368351 -23.18947935 8.21739405 -20.4375 6.375 C-13.94841821 2.16809528 -7.87660833 -0.60589295 0 0 Z " fill="#D4D4D4" transform="translate(126,97)"/>
<path d="M0 0 C8.78311851 5.20143122 12.60819896 13.08848138 17 22 C17.66 22 18.32 22 19 22 C20.71230248 23.61974559 22.37163262 25.2958946 24 27 C26.49983355 29.51229119 29.01164847 32.01148694 31.53515625 34.5 C32.36917969 35.325 33.20320313 36.15 34.0625 37 C34.89910156 37.825 35.73570312 38.65 36.59765625 39.5 C43 46.16260163 43 46.16260163 43 49 C43.66 49 44.32 49 45 49 C46.37015264 50.57669369 47.67291702 52.21243838 48.9375 53.875 C51.22906462 56.88187545 52.83581038 58.89054025 56 61 C56.66 60.34 57.32 59.68 58 59 C58.495 61.475 58.495 61.475 59 64 C54.07391814 64 51.43405401 60.28236765 48 57 C45.43871779 54.42962602 42.9599189 51.79221544 40.5 49.125 C39.84854004 48.42608643 39.19708008 47.72717285 38.52587891 47.00708008 C34.48481327 42.65776337 30.522031 38.25284924 26.7109375 33.69921875 C24.67902247 31.68122095 22.45359684 30.46449061 20 29 C15.15630486 24.38035243 11.39968476 18.8303134 7.6328125 13.33203125 C4.77112045 9.24487777 1.62809446 5.43714212 -2 2 C-1.34 2 -0.68 2 0 2 C0 1.34 0 0.68 0 0 Z " fill="#D0D0D0" transform="translate(96,288)"/>
<path d="M0 0 C5.70070187 3.99049131 8.31581481 10.75534924 11 17 C11 17.66 11 18.32 11 19 C11.66 19 12.32 19 13 19 C13 20.32 13 21.64 13 23 C7.52941176 22.39215686 7.52941176 22.39215686 5.3125 20.75 C4 19 4 19 2.70703125 16.67578125 C0.3144144 12.92534065 -2.80326923 10.20471465 -6.0390625 7.18359375 C-7.98966771 5.01150548 -8.62561064 3.84665016 -9 1 C-5.63633609 -0.1212213 -3.52465728 -0.42295887 0 0 Z " fill="#E4E4E4" transform="translate(94,210)"/>
<path d="M0 0 C2.98062474 5.45834572 3.81657637 11.16067351 2.0625 17.1875 C0.44627057 21.42261972 -1.72414032 25.36521425 -3.9375 29.3125 C-4.27322021 29.91151123 -4.60894043 30.51052246 -4.95483398 31.12768555 C-7.82768984 36.06438661 -10.68911901 39.72390815 -16 42 C-14.58839883 39.05328777 -12.98527909 36.3306847 -11.21484375 33.5859375 C-10.68439453 32.74160156 -10.15394531 31.89726562 -9.60742188 31.02734375 C-8.50356707 29.27408665 -7.38654184 27.52904566 -6.25585938 25.79296875 C-1.17446114 17.61074162 -0.16392196 10.3843989 -2 1 C-1.34 0.67 -0.68 0.34 0 0 Z " fill="#121212" transform="translate(313,360)"/>
<path d="M0 0 C0.33 0 0.66 0 1 0 C1.33 4.95 1.66 9.9 2 15 C2.66 15 3.32 15 4 15 C4.268125 16.010625 4.53625 17.02125 4.8125 18.0625 C7.09308944 25.79463543 9.12741199 29.72084143 16 34 C15.01 34.495 15.01 34.495 14 35 C14.33 35.99 14.66 36.98 15 38 C13.02 37.34 11.04 36.68 9 36 C9 35.34 9 34.68 9 34 C8.07380859 33.61521484 8.07380859 33.61521484 7.12890625 33.22265625 C1.45557578 29.9643949 -0.19631173 20.90297979 -2 15 C-1.34 15 -0.68 15 0 15 C0 10.05 0 5.1 0 0 Z " fill="#D5D5D5" transform="translate(41,216)"/>
<path d="M0 0 C0.66 0.33 1.32 0.66 2 1 C2.65989174 6.05917 1.95267219 8.40355518 -0.9375 12.625 C-4.36323113 17.8113976 -4.61342088 22.08932568 -4.50390625 28.21484375 C-5 31 -5 31 -7.52734375 32.87890625 C-8.34332031 33.24886719 -9.15929688 33.61882812 -10 34 C-10.495 32.515 -10.495 32.515 -11 31 C-10.34 30.34 -9.68 29.68 -9 29 C-9.06465325 27.41305659 -9.20216967 25.8288284 -9.375 24.25 C-9.56866527 17.26882825 -6.46494708 12.7518827 -2.84765625 7.06640625 C-1.33309109 4.55280446 -0.44126597 2.85071825 0 0 Z " fill="#E5E5E5" transform="translate(58,143)"/>
<path d="M0 0 C1.12329712 0.07069702 1.12329712 0.07069702 2.26928711 0.14282227 C3.07817383 0.19116211 3.88706055 0.23950195 4.72045898 0.28930664 C5.99566406 0.37341797 5.99566406 0.37341797 7.29663086 0.45922852 C8.57763672 0.53753906 8.57763672 0.53753906 9.88452148 0.61743164 C12.00135081 0.74751612 14.1177833 0.88402822 16.23413086 1.02172852 C16.23413086 1.35172852 16.23413086 1.68172852 16.23413086 2.02172852 C14.87481445 2.07780273 14.87481445 2.07780273 13.48803711 2.13500977 C6.96451667 2.48707277 1.29111036 3.04275962 -4.80883789 5.39672852 C-7.77399182 6.34368386 -10.67874438 6.0810963 -13.76586914 6.02172852 C-14.54961914 6.35172852 -15.33336914 6.68172852 -16.14086914 7.02172852 C-19.98541448 8.48631722 -23.69734169 8.18127861 -27.76586914 8.02172852 C-28.42586914 9.34172852 -29.08586914 10.66172852 -29.76586914 12.02172852 C-31.76586914 11.02172852 -31.76586914 11.02172852 -32.76586914 9.02172852 C-25.66490878 2.90843171 -14.21075542 2.67330392 -5.25024414 1.45141602 C-2.84078994 1.03468652 -2.2637547 0.02785486 0 0 Z " fill="#C6C6C6" transform="translate(156.765869140625,86.978271484375)"/>
<path d="M0 0 C0.99 0.33 1.98 0.66 3 1 C3.37020714 5.52732481 3.37020714 5.52732481 1.6875 7.67578125 C1.130625 8.21589844 0.57375 8.75601563 0 9.3125 C-4.85570856 15.20546086 -3.47084741 22.81521728 -3 30 C-4.9375 29.25 -4.9375 29.25 -7 28 C-8.93077824 23.16794651 -8.57827454 17.04620222 -7.1875 12.125 C-5.98013234 9.96444734 -4.97162293 8.49843342 -3 7 C-2.01 7 -1.02 7 0 7 C0 4.69 0 2.38 0 0 Z " fill="#D8D8D8" transform="translate(45,202)"/>
<path d="M0 0 C1.32 0 2.64 0 4 0 C5.36639342 1.6396721 6.6949419 3.31110128 8 5 C9.010625 5.66 10.02125 6.32 11.0625 7 C14.14658555 9.09980292 15.25617744 10.77392826 17 14 C17.66 14.33 18.32 14.66 19 15 C19 15.66 19 16.32 19 17 C16.75 17.375 16.75 17.375 14 17 C12.6559907 15.00715862 11.32458708 13.00580329 10 11 C8.04179084 9.66021746 8.04179084 9.66021746 5.875 8.5 C2.66865055 6.6703545 2.10593975 6.23395029 0.5 2.6875 C0.335 1.800625 0.17 0.91375 0 0 Z " fill="#DCDCDC" transform="translate(55,251)"/>
<path d="M0 0 C3.03103507 0.32475376 3.93375554 0.92547498 6 3.25 C7.24782092 4.96575377 8.47990684 6.69319876 9.6875 8.4375 C11.85682027 10.84134138 13.66779811 12.16542695 16.375 13.875 C21.57711737 17.21431296 26.06472482 20.86014762 27.875 26.9375 C27.91625 27.618125 27.9575 28.29875 28 29 C27.34 29 26.68 29 26 29 C25.5359375 27.7625 25.5359375 27.7625 25.0625 26.5 C22.52489212 21.3759841 17.21432454 16.43699215 12.0078125 14.109375 C9.05296597 12.47673606 7.40317339 10.12630046 5.3125 7.5 C4.52488281 6.5203125 3.73726563 5.540625 2.92578125 4.53125 C1 2 1 2 0 0 Z " fill="#BBBBBB" transform="translate(270,114)"/>
<path d="M0 0 C0 3.34032623 -0.5631327 4.30202837 -2.265625 7.08984375 C-2.74386719 7.87423828 -3.22210938 8.65863281 -3.71484375 9.46679688 C-4.47474609 10.68979492 -4.47474609 10.68979492 -5.25 11.9375 C-5.74113281 12.74896484 -6.23226563 13.56042969 -6.73828125 14.39648438 C-9.17325886 18.35413465 -11.46581523 21.91179569 -15 25 C-15 20.57570998 -12.90837736 17.4832032 -10.875 13.625 C-10.49601562 12.86960937 -10.11703125 12.11421875 -9.7265625 11.3359375 C-7.12581534 6.37717958 -4.53318563 3.29805679 0 0 Z " fill="#101010" transform="translate(300,399)"/>
<path d="M0 0 C-1.88463976 4.83544716 -5.70422818 6.95728375 -9.78515625 9.90234375 C-12.30245902 12.2864559 -12.71053002 13.6031584 -13 17 C-13.66 16.01 -14.32 15.02 -15 14 C-20.445 19.445 -20.445 19.445 -26 25 C-26 22 -26 22 -24.05859375 19.73046875 C-9.906298 6 -9.906298 6 -7 6 C-7 5.34 -7 4.68 -7 4 C-2.52941176 0 -2.52941176 0 0 0 Z M-29 25 C-28.34 25.33 -27.68 25.66 -27 26 C-27.99 26.66 -28.98 27.32 -30 28 C-29.67 27.01 -29.34 26.02 -29 25 Z " fill="#2C2C2C" transform="translate(239,288)"/>
<path d="M0 0 C0 0.66 0 1.32 0 2 C-10.6948466 2.96288008 -21.27132003 3.10947633 -32 3 C-23.81784386 -2.45477076 -9.64378316 -0.10283655 0 0 Z " fill="#D1D1D1" transform="translate(190,85)"/>
<path d="M0 0 C10.87037075 0.34509113 17.14861623 5.98386982 25 13 C24.01 13.33 23.02 13.66 22 14 C20.17578125 13.07421875 20.17578125 13.07421875 18.3125 11.6875 C17.68988281 11.23761719 17.06726563 10.78773437 16.42578125 10.32421875 C15.72001953 9.66873047 15.72001953 9.66873047 15 9 C15 8.34 15 7.68 15 7 C14.28457031 6.71382813 13.56914062 6.42765625 12.83203125 6.1328125 C8.5546875 4.421875 4.27734375 2.7109375 0 1 C0 0.67 0 0.34 0 0 Z " fill="#C9C9C9" transform="translate(247,100)"/>
<path d="M0 0 C0.66 0 1.32 0 2 0 C4.36355825 5.4464603 6.13347665 9.65448462 6.0625 15.6875 C6.05347656 16.68136719 6.04445313 17.67523438 6.03515625 18.69921875 C6.02355469 19.45847656 6.01195312 20.21773438 6 21 C1.72002382 14.58003573 0.60135903 7.57712384 0 0 Z " fill="#0B0B0B" transform="translate(307,343)"/>
<path d="M0 0 C0.66 0.33 1.32 0.66 2 1 C2.9199404 8.0528764 -0.1257826 12.26938677 -4 18 C-4.99 17.67 -5.98 17.34 -7 17 C-5.98387374 13.52823527 -4.77832394 10.47427812 -2.9375 7.375 C-1.42236525 4.73573302 -0.47068969 2.94181057 0 0 Z " fill="#D8D8D8" transform="translate(58,143)"/>
<path d="M0 0 C0.33 0 0.66 0 1 0 C1.33 4.95 1.66 9.9 2 15 C2.66 15 3.32 15 4 15 C4.6875 18.3125 4.6875 18.3125 5 22 C4.01 22.99 3.02 23.98 2 25 C0.68 21.7 -0.64 18.4 -2 15 C-1.34 15 -0.68 15 0 15 C0 10.05 0 5.1 0 0 Z " fill="#BBBBBB" transform="translate(41,216)"/>
<path d="M0 0 C-1.48736928 2.97473856 -3.89022659 3.1570306 -6.875 4.20703125 C-9.22189062 5.03678245 -9.22189062 5.03678245 -12.1875 6.625 C-14.85020439 7.92676659 -17.08348014 8.57110002 -20 9 C-19.01 8.67 -18.02 8.34 -17 8 C-17.33 7.01 -17.66 6.02 -18 5 C-16.75264433 4.3490741 -15.50198168 3.70448331 -14.25 3.0625 C-13.55390625 2.70285156 -12.8578125 2.34320313 -12.140625 1.97265625 C-8.01773637 0.09929992 -4.51512167 -0.1026164 0 0 Z " fill="#CACACA" transform="translate(126,97)"/>
<path d="M0 0 C0.66 1.32 1.32 2.64 2 4 C2.66 3.01 3.32 2.02 4 1 C4.28875 2.051875 4.5775 3.10375 4.875 4.1875 C5.77225193 7.22818711 6.76423419 10.08712344 8 13 C7.67 13 7.34 13 7 13 C6.67 14.98 6.34 16.96 6 19 C5.34 18.67 4.68 18.34 4 18 C4.0825 17.278125 4.165 16.55625 4.25 15.8125 C4.26272589 12.84837878 4.26272589 12.84837878 2 10.6875 C-0.79944388 6.92574728 -0.31214949 4.60420492 0 0 Z " fill="#C5C5C5" transform="translate(39,190)"/>
<path d="M0 0 C2.80119384 5.04214891 3.37367577 10.38426963 2.5625 16.0625 C2.376875 16.701875 2.19125 17.34125 2 18 C1.01 17.67 0.02 17.34 -1 17 C-0.98839844 16.43152344 -0.97679687 15.86304688 -0.96484375 15.27734375 C-0.90776806 10.39329516 -1.18043228 5.81496035 -2 1 C-1.34 0.67 -0.68 0.34 0 0 Z " fill="#171717" transform="translate(313,360)"/>
<path d="M0 0 C1.29315061 0.95632999 2.58446853 1.91513851 3.875 2.875 C4.59429687 3.40867187 5.31359375 3.94234375 6.0546875 4.4921875 C8 6 8 6 10 8 C10 8.99 10 9.98 10 11 C6.60807637 10.40716379 4.7892243 9.23256811 2.25 6.9375 C1.63640625 6.38964844 1.0228125 5.84179688 0.390625 5.27734375 C-0.06828125 4.85582031 -0.5271875 4.43429687 -1 4 C-0.67 2.68 -0.34 1.36 0 0 Z " fill="#D4D4D4" transform="translate(86,279)"/>
<path d="M0 0 C0.66 0.33 1.32 0.66 2 1 C4.71262116 1.2322646 7.40773126 1.41936235 10.125 1.5625 C11.25615234 1.62727539 11.25615234 1.62727539 12.41015625 1.69335938 C14.27321888 1.7994832 16.13658524 1.90025001 18 2 C18 2.33 18 2.66 18 3 C15.45873828 3.19617816 12.91739541 3.38217248 10.375 3.5625 C9.66214844 3.61857422 8.94929688 3.67464844 8.21484375 3.73242188 C3.94513533 4.02620915 0.22901711 3.81696921 -4 3 C-5.45720928 2.93907988 -6.91673459 2.91235749 -8.375 2.9375 C-10.169375 2.9684375 -10.169375 2.9684375 -12 3 C-7.58966733 0.05977822 -5.32881031 -0.19031465 0 0 Z " fill="#A9A9A9" transform="translate(199,85)"/>
<path d="M0 0 C0.66 0.33 1.32 0.66 2 1 C2 1.66 2 2.32 2 3 C1.34 3 0.68 3 0 3 C-0.268125 3.556875 -0.53625 4.11375 -0.8125 4.6875 C-2 7 -2 7 -3.5625 9.4375 C-5.01156616 12.02061794 -5.58394145 14.08759012 -6 17 C-6.99 17 -7.98 17 -9 17 C-8.42040635 13.35499996 -7.44335483 10.5819167 -5.625 7.375 C-5.20476562 6.61960937 -4.78453125 5.86421875 -4.3515625 5.0859375 C-3.06623024 3.10221661 -1.73546252 1.59337787 0 0 Z " fill="#292929" transform="translate(264,350)"/>
<path d="M0 0 C2.53987844 2.46932626 4.92596045 4.90636174 7.125 7.6875 C8.96561073 10.19153669 8.96561073 10.19153669 12 12 C12.66 11.34 13.32 10.68 14 10 C14.33 11.65 14.66 13.3 15 15 C10.08848747 15 7.46033025 11.22360746 4 8 C3.175 7.278125 2.35 6.55625 1.5 5.8125 C0 4 0 4 0 0 Z " fill="#B7B7B7" transform="translate(140,337)"/>
<path d="M0 0 C2.35448675 -0.05454409 4.70767875 -0.0939279 7.0625 -0.125 C9.02896484 -0.15980469 9.02896484 -0.15980469 11.03515625 -0.1953125 C15.11824299 0.00582478 18.14999053 0.72834538 22 2 C22 2.66 22 3.32 22 4 C16.375 4.25 16.375 4.25 13 2 C9.79620876 1.75753217 9.79620876 1.75753217 6.3125 1.875 C5.13300781 1.89304687 3.95351562 1.91109375 2.73828125 1.9296875 C1.38283203 1.96449219 1.38283203 1.96449219 0 2 C0 1.34 0 0.68 0 0 Z " fill="#D8D8D8" transform="translate(203,88)"/>
<path d="M0 0 C4.64439825 3.56430564 7.93315626 6.98152843 11 12 C10.67 12.99 10.34 13.98 10 15 C6.23645964 10.73958774 2.50118038 6.48151089 -1 2 C-0.67 1.34 -0.34 0.68 0 0 Z " fill="#C2C2C2" transform="translate(129,325)"/>
<path d="M0 0 C0 0.66 0 1.32 0 2 C-0.61875 2.04125 -1.2375 2.0825 -1.875 2.125 C-2.57625 2.41375 -3.2775 2.7025 -4 3 C-5.3045656 5.99615946 -5.3045656 5.99615946 -6 9 C-7.65 9.33 -9.3 9.66 -11 10 C-11 9.34 -11 8.68 -11 8 C-10.01 7.34 -9.02 6.68 -8 6 C-7.505 5.154375 -7.01 4.30875 -6.5 3.4375 C-4.69187917 0.49930365 -3.43158588 0 0 0 Z " fill="#DFDFDF" transform="translate(95,111)"/>
<path d="M0 0 C2.79605098 0.08223679 4.52830905 0.58134607 6.6328125 2.44921875 C9.61466422 5.76958987 11.72000875 8.38014431 12 13 C11.34 13 10.68 13 10 13 C9.649375 12.13375 9.29875 11.2675 8.9375 10.375 C6.84112138 6.72324369 4.6840787 4.76942854 1.42578125 2.19921875 C0.95527344 1.80347656 0.48476563 1.40773437 0 1 C0 0.67 0 0.34 0 0 Z " fill="#9E9E9E" transform="translate(286,130)"/>
<path d="M0 0 C0.33 0.99 0.66 1.98 1 3 C-0.86759004 6.51968892 -2.1486353 8.57431765 -5.75 10.375 C-6.4925 10.58125 -7.235 10.7875 -8 11 C-3.98181818 2.65454545 -3.98181818 2.65454545 0 0 Z " fill="#1F1F1F" transform="translate(305,391)"/>
<path d="M0 0 C1.12329712 0.07069702 1.12329712 0.07069702 2.26928711 0.14282227 C3.07817383 0.19116211 3.88706055 0.23950195 4.72045898 0.28930664 C5.99566406 0.37341797 5.99566406 0.37341797 7.29663086 0.45922852 C8.57763672 0.53753906 8.57763672 0.53753906 9.88452148 0.61743164 C12.00135081 0.74751612 14.1177833 0.88402822 16.23413086 1.02172852 C16.23413086 1.35172852 16.23413086 1.68172852 16.23413086 2.02172852 C15.26991211 2.08231445 14.30569336 2.14290039 13.31225586 2.20532227 C12.04897461 2.28911133 10.78569336 2.37290039 9.48413086 2.45922852 C8.23116211 2.54043945 6.97819336 2.62165039 5.68725586 2.70532227 C3.05095533 2.94688374 0.75375791 3.26456786 -1.76586914 4.02172852 C-2.09586914 3.03172852 -2.42586914 2.04172852 -2.76586914 1.02172852 C-1.76586914 0.02172852 -1.76586914 0.02172852 0 0 Z " fill="#8C8C8C" transform="translate(156.765869140625,86.978271484375)"/>
<path d="M0 0 C-0.33 0.99 -0.66 1.98 -1 3 C-5.455 3.495 -5.455 3.495 -10 4 C-10 3.34 -10 2.68 -10 2 C-6.3558226 -0.4294516 -4.28758728 -0.16179575 0 0 Z " fill="#2D2D2D" transform="translate(195,394)"/>
<path d="M0 0 C0.33 0 0.66 0 1 0 C1.33 6.27 1.66 12.54 2 19 C1.01 19.33 0.02 19.66 -1 20 C-0.67 13.4 -0.34 6.8 0 0 Z " fill="#A7A7A7" transform="translate(279,221)"/>
<path d="M0 0 C2.31 0 4.62 0 7 0 C7 0.66 7 1.32 7 2 C7.66 2.33 8.32 2.66 9 3 C6 4 6 4 3 3 C1.66893378 2.65772583 0.33599921 2.32248257 -1 2 C-0.67 1.34 -0.34 0.68 0 0 Z " fill="#A6A6A6" transform="translate(240,97)"/>
<path d="M0 0 C2.83022097 3.99560608 1.76210446 7.42737323 1 12 C-1.12046792 8.46588679 -1.53199289 5.05606165 -2 1 C-1.34 0.67 -0.68 0.34 0 0 Z " fill="#646464" transform="translate(313,360)"/>
<path d="M0 0 C2.5 2.3125 2.5 2.3125 5 5 C5 5.99 5 6.98 5 8 C3.0625 7.375 3.0625 7.375 1 6 C0.25 2.875 0.25 2.875 0 0 Z " fill="#E2E2E2" transform="translate(104,298)"/>
<path d="M0 0 C0.99 0 1.98 0 3 0 C3 0.99 3 1.98 3 3 C2.34 3 1.68 3 1 3 C1 6.96 1 10.92 1 15 C0.67 15 0.34 15 0 15 C0 10.05 0 5.1 0 0 Z " fill="#FCFCFC" transform="translate(39,213)"/>
<path d="M0 0 C2.475 0.99 2.475 0.99 5 2 C5.66 1.34 6.32 0.68 7 0 C7.33 1.65 7.66 3.3 8 5 C5 5 5 5 2.3125 2.5 C1.549375 1.675 0.78625 0.85 0 0 Z " fill="#979797" transform="translate(147,347)"/>
<path d="M0 0 C0.66 0 1.32 0 2 0 C2 0.66 2 1.32 2 2 C2.66 2 3.32 2 4 2 C4 2.66 4 3.32 4 4 C3.34 4 2.68 4 2 4 C1.67 4.66 1.34 5.32 1 6 C1 5.34 1 4.68 1 4 C-0.65 3.67 -2.3 3.34 -4 3 C-2.68 2.67 -1.36 2.34 0 2 C0 1.34 0 0.68 0 0 Z " fill="#BFBFBF" transform="translate(74,266)"/>
<path d="M0 0 C0.66 0 1.32 0 2 0 C2 0.66 2 1.32 2 2 C2.66 2.33 3.32 2.66 4 3 C1.525 4.485 1.525 4.485 -1 6 C-1.66 5.34 -2.32 4.68 -3 4 C-2.67 3.34 -2.34 2.68 -2 2 C-1.34 2 -0.68 2 0 2 C0 1.34 0 0.68 0 0 Z " fill="#C7C7C7" transform="translate(82,119)"/>
<path d="M0 0 C-1 1.5625 -1 1.5625 -3 3 C-5.76614782 2.96726452 -8.26030547 2.49404328 -11 2 C-11 1.67 -11 1.34 -11 1 C-7.26562152 0.12132271 -3.83225427 -0.08912219 0 0 Z " fill="#C6C6C6" transform="translate(156,89)"/>
<path d="M0 0 C-0.375 1.9375 -0.375 1.9375 -1 4 C-1.99 4.495 -1.99 4.495 -3 5 C-3.99 4.34 -4.98 3.68 -6 3 C-3.375 0 -3.375 0 0 0 Z " fill="#DBDBDB" transform="translate(45,209)"/>
<path d="M0 0 C1.65 0 3.3 0 5 0 C5 1.32 5 2.64 5 4 C3.0625 3.6875 3.0625 3.6875 1 3 C0.67 2.01 0.34 1.02 0 0 Z " fill="#D0D0D0" transform="translate(113,284)"/>
<path d="M0 0 C1.98 0.66 3.96 1.32 6 2 C6 2.66 6 3.32 6 4 C4.35 4 2.7 4 1 4 C0.67 2.68 0.34 1.36 0 0 Z " fill="#E9E9E9" transform="translate(68,264)"/>
<path d="M0 0 C1.27351308 2.54702616 0.80191925 3.4282945 0.0625 6.125 C-0.13214844 6.84945312 -0.32679687 7.57390625 -0.52734375 8.3203125 C-0.68332031 8.87460938 -0.83929688 9.42890625 -1 10 C-3 7 -3 7 -2.75 4.4375 C-2 2 -2 2 0 0 Z " fill="#F8F8F8" transform="translate(43,187)"/>
<path d="M0 0 C0.66 0.33 1.32 0.66 2 1 C2 3.31 2 5.62 2 8 C1.01 7.67 0.02 7.34 -1 7 C-0.67 4.69 -0.34 2.38 0 0 Z " fill="#ECECEC" transform="translate(58,143)"/>
</svg>
